<svg width="108" height="213" viewBox="0 0 108 213" fill="none" xmlns="http://www.w3.org/2000/svg">
<g filter="url(#filter0_i_62_4122)">
<path d="M12.7319 181.033C19.2091 204.173 19.2892 208.988 28.7898 207.776C32.9801 207.242 34.9091 185.976 33.9335 178.329C30.8635 154.263 31.2815 157.165 32.0446 125.577C32.5589 104.287 28.7921 88.7694 19.2384 92.5092C11.6136 95.4939 9.94454 108.934 7.24115 120.344C3.92146 134.355 8.37408 165.465 12.7319 181.033Z" fill="#F4AB40"/>
</g>
<path d="M4.8085 119.767L4.8085 119.767C5.19462 118.138 5.56837 116.418 5.94896 114.667C6.84982 110.523 7.78895 106.202 9.02094 102.481C10.7489 97.2625 13.3719 92.1209 18.3271 90.1812C21.4168 88.9717 24.3729 89.2597 26.8384 91.1016C29.1188 92.8053 30.6817 95.621 31.7831 98.8498C34.0005 105.35 34.803 114.911 34.5439 125.637C34.4531 129.394 34.3675 132.657 34.2921 135.53C34.0491 144.793 33.9122 150.012 34.0506 154.7C34.2301 160.785 34.8741 165.946 36.4134 178.012C36.9404 182.144 36.6743 189.616 35.7749 196.065C35.3235 199.302 34.693 202.431 33.8618 204.84C33.45 206.034 32.9449 207.184 32.3041 208.102C31.7045 208.961 30.6765 210.056 29.1061 210.256C26.5911 210.577 24.2468 210.572 22.1676 209.647C20.007 208.687 18.554 206.929 17.4012 204.675C16.2721 202.467 15.3025 199.525 14.236 195.84C13.6435 193.792 12.9962 191.423 12.2636 188.742C11.6772 186.596 11.036 184.249 10.3244 181.707C8.101 173.764 5.87644 161.955 4.622 150.374C3.37708 138.88 3.0415 127.225 4.8085 119.767Z" stroke="#FFCA42" stroke-width="5" stroke-linecap="round"/>
<g filter="url(#filter1_i_62_4122)">
<path d="M54.8652 101.86C53.9873 129.978 52.3782 135.38 63.4963 137.385C68.4 138.269 78.0751 115.214 79.6763 106.333C84.7147 78.3873 84.161 81.7738 96.1672 46.7855C104.259 23.2044 105.497 4.55292 93.4268 5.35114C83.7938 5.98819 77.1726 20.4004 70.1042 32.18C61.4244 46.6455 55.4558 82.9431 54.8652 101.86Z" fill="#F4AB40"/>
<path d="M54.8652 101.86C53.9873 129.978 52.3782 135.38 63.4963 137.385C68.4 138.269 78.0751 115.214 79.6763 106.333C84.7147 78.3873 84.161 81.7738 96.1672 46.7855C104.259 23.2044 105.497 4.55292 93.4268 5.35114C83.7938 5.98819 77.1726 20.4004 70.1042 32.18C61.4244 46.6455 55.4558 82.9431 54.8652 101.86Z" fill="url(#paint0_radial_62_4122)" fill-opacity="0.5"/>
</g>
<path d="M82.1366 106.777C81.2806 111.525 78.3605 119.735 75.0804 126.599C73.4352 130.042 71.6348 133.284 69.8725 135.649C68.9982 136.822 68.0514 137.891 67.0516 138.655C66.107 139.377 64.6963 140.141 63.0527 139.845C60.1362 139.319 57.6026 138.504 55.6847 136.821C53.6978 135.078 52.7113 132.711 52.2183 129.838C51.7343 127.017 51.68 123.426 51.7806 118.935C51.8364 116.441 51.9438 113.575 52.0655 110.328C52.163 107.725 52.2697 104.878 52.3664 101.782C52.6669 92.1573 54.3277 78.2132 56.9998 64.8602C59.6545 51.5945 63.3798 38.5277 67.9605 30.8937C68.9792 29.196 70.0119 27.3996 71.061 25.5745C73.5324 21.2753 76.095 16.8174 78.7808 13.1183C82.564 7.90767 87.2255 3.25578 93.2618 2.85659C97.0231 2.60784 100.085 3.91656 102.108 6.70407C103.998 9.30805 104.758 12.9022 104.857 16.8636C105.056 24.829 102.604 35.7286 98.5318 47.597C97.1059 51.7525 95.8592 55.3608 94.7608 58.54C91.2167 68.7983 89.216 74.5894 87.7138 79.8828C85.7619 86.7612 84.6618 92.7705 82.1366 106.777Z" stroke="#FFCA42" stroke-width="5" stroke-linecap="round"/>
<defs>
<filter id="filter0_i_62_4122" x="-0.914795" y="85.9529" width="40.0969" height="126.996" filterUnits="userSpaceOnUse" color-interpolation-filters="sRGB">
<feFlood flood-opacity="0" result="BackgroundImageFix"/>
<feBlend mode="normal" in="SourceGraphic" in2="BackgroundImageFix" result="shape"/>
<feColorMatrix in="SourceAlpha" type="matrix" values="0 0 0 0 0 0 0 0 0 0 0 0 0 0 0 0 0 0 127 0" result="hardAlpha"/>
<feOffset dx="-2" dy="-1"/>
<feGaussianBlur stdDeviation="7.5"/>
<feComposite in2="hardAlpha" operator="arithmetic" k2="-1" k3="1"/>
<feColorMatrix type="matrix" values="0 0 0 0 0 0 0 0 0 0 0 0 0 0 0 0 0 0 1 0"/>
<feBlend mode="normal" in2="shape" result="effect1_innerShadow_62_4122"/>
</filter>
<filter id="filter1_i_62_4122" x="47.2383" y="-0.672974" width="60.1299" height="143.084" filterUnits="userSpaceOnUse" color-interpolation-filters="sRGB">
<feFlood flood-opacity="0" result="BackgroundImageFix"/>
<feBlend mode="normal" in="SourceGraphic" in2="BackgroundImageFix" result="shape"/>
<feColorMatrix in="SourceAlpha" type="matrix" values="0 0 0 0 0 0 0 0 0 0 0 0 0 0 0 0 0 0 127 0" result="hardAlpha"/>
<feOffset dx="-2" dy="-1"/>
<feGaussianBlur stdDeviation="7.5"/>
<feComposite in2="hardAlpha" operator="arithmetic" k2="-1" k3="1"/>
<feColorMatrix type="matrix" values="0 0 0 0 0 0 0 0 0 0 0 0 0 0 0 0 0 0 1 0"/>
<feBlend mode="normal" in2="shape" result="effect1_innerShadow_62_4122"/>
</filter>
<radialGradient id="paint0_radial_62_4122" cx="0" cy="0" r="1" gradientUnits="userSpaceOnUse" gradientTransform="translate(65.2971 62.7036) rotate(15.5809) scale(53.9838 193.68)">
<stop stop-color="white"/>
<stop offset="0.27552" stop-color="white" stop-opacity="0"/>
</radialGradient>
</defs>
</svg>
