<svg width="623" height="580" viewBox="0 0 623 580" fill="none" xmlns="http://www.w3.org/2000/svg">
<path d="M367.309 9.37148C293.708 -3.67046 241.513 -2.17874 202.142 9.37146C137.138 28.4411 75.4273 79.7087 41.6014 142.202C20.3955 181.38 -8.15496 296.872 3.47915 344.326C15.3099 392.582 34.8457 434.365 60.0748 477.73C95.9774 539.442 163.796 581.606 241.513 579.118L241.805 579.109C297.176 577.336 371.827 574.946 421.839 551.093C469.683 528.274 519.269 479.559 550.379 439.037C583.038 396.499 609.8 337.861 619.343 284.008C633.672 203.14 600.819 137.894 526.898 81.3164C501.155 61.614 398.129 14.8327 367.309 9.37148Z" fill="url(#paint0_radial_62_4115)"/>
<defs>
<radialGradient id="paint0_radial_62_4115" cx="0" cy="0" r="1" gradientUnits="userSpaceOnUse" gradientTransform="translate(149.5 245.5) rotate(26.0101) scale(461.77 549.998)">
<stop offset="0.0416667" stop-color="#A04300" stop-opacity="0.91"/>
<stop offset="0.382915" stop-color="#A84700" stop-opacity="0.84"/>
<stop offset="1" stop-color="#F5A062" stop-opacity="0.66"/>
</radialGradient>
</defs>
</svg>
