<svg width="623" height="580" viewBox="0 0 623 580" fill="none" xmlns="http://www.w3.org/2000/svg">
<path fill-rule="evenodd" clip-rule="evenodd" d="M241.513 579.118C163.796 581.606 95.9774 539.442 60.0748 477.73C34.8457 434.365 15.3099 392.582 3.47915 344.326C-8.15496 296.872 20.3955 181.38 41.6014 142.202C75.4273 79.7087 137.138 28.4411 202.142 9.37146C241.513 -2.17874 293.708 -3.67046 367.309 9.37148C398.129 14.8327 501.155 61.614 526.898 81.3164C600.819 137.894 633.672 203.14 619.343 284.008C609.8 337.861 583.038 396.499 550.379 439.037C519.269 479.559 469.683 528.274 421.84 551.092C371.827 574.946 297.176 577.336 241.805 579.109L241.513 579.118ZM241.308 563.597L241.017 563.606L241.017 563.606C169.395 565.899 106.728 527.057 73.4896 469.926C48.7057 427.326 29.9111 386.96 18.5527 340.631C16.2269 331.144 15.6918 316.957 17.0211 299.406C18.3288 282.141 21.3467 262.726 25.4142 243.349C33.6422 204.152 45.7126 167.211 55.2503 149.59C87.234 90.4997 145.727 42.0956 206.511 24.2638C242.704 13.6458 292.248 11.8324 364.601 24.6533C370.739 25.7409 381.762 29.2085 396.122 34.6568C410.15 39.9794 426.42 46.8241 442.614 54.1454C475.641 69.0764 506.221 85.0352 517.465 93.6408C553.08 120.9 577.845 149.525 592.156 180.128C606.367 210.517 610.71 243.778 604.061 281.3C594.975 332.572 569.29 388.919 538.069 429.586C507.676 469.173 459.877 515.756 415.158 537.084C392.406 547.936 363.197 554.245 331.992 557.97C300.931 561.679 269.088 562.707 241.308 563.597C241.308 563.597 241.308 563.597 241.308 563.597Z" fill="url(#paint0_linear_62_4125)"/>
<defs>
<linearGradient id="paint0_linear_62_4125" x1="594.963" y1="379.88" x2="56.2068" y2="185.067" gradientUnits="userSpaceOnUse">
<stop stop-color="#AC7759"/>
<stop offset="1" stop-color="#FFB085"/>
</linearGradient>
</defs>
</svg>
