<svg width="231" height="230" viewBox="0 0 231 230" fill="none" xmlns="http://www.w3.org/2000/svg">
<g filter="url(#filter0_i_62_4117)">
<path d="M150.5 0.499946C121.494 0.499946 103.5 -3.5 63.7475 14.1495C40.5 24.471 1.02195 56.5921 1.02195 92.8533C1.02195 111.218 -3.17629 141.762 8.00833 156.61C19.0686 171.293 24.6686 187.676 37.2448 202.089C55.1416 222.601 76.7459 233.405 106.273 227.379C127.322 223.084 152.308 211.684 169.834 199.539C186.57 187.941 199.609 168.993 208.753 151.934C218.351 134.026 230.661 113.791 230.661 93.2075C230.661 62.2989 225.489 34.4413 193.413 18.3291C182.243 12.7182 162.646 0.499946 150.5 0.499946Z" fill="url(#paint0_radial_62_4117)"/>
<path d="M150.5 0.499946C121.494 0.499946 103.5 -3.5 63.7475 14.1495C40.5 24.471 1.02195 56.5921 1.02195 92.8533C1.02195 111.218 -3.17629 141.762 8.00833 156.61C19.0686 171.293 24.6686 187.676 37.2448 202.089C55.1416 222.601 76.7459 233.405 106.273 227.379C127.322 223.084 152.308 211.684 169.834 199.539C186.57 187.941 199.609 168.993 208.753 151.934C218.351 134.026 230.661 113.791 230.661 93.2075C230.661 62.2989 225.489 34.4413 193.413 18.3291C182.243 12.7182 162.646 0.499946 150.5 0.499946Z" fill="url(#paint1_radial_62_4117)"/>
</g>
<defs>
<filter id="filter0_i_62_4117" x="-5.75" y="-8.88916" width="236.411" height="237.93" filterUnits="userSpaceOnUse" color-interpolation-filters="sRGB">
<feFlood flood-opacity="0" result="BackgroundImageFix"/>
<feBlend mode="normal" in="SourceGraphic" in2="BackgroundImageFix" result="shape"/>
<feColorMatrix in="SourceAlpha" type="matrix" values="0 0 0 0 0 0 0 0 0 0 0 0 0 0 0 0 0 0 127 0" result="hardAlpha"/>
<feOffset dx="-6" dy="-9"/>
<feGaussianBlur stdDeviation="17.5"/>
<feComposite in2="hardAlpha" operator="arithmetic" k2="-1" k3="1"/>
<feColorMatrix type="matrix" values="0 0 0 0 0 0 0 0 0 0 0 0 0 0 0 0 0 0 1 0"/>
<feBlend mode="normal" in2="shape" result="effect1_innerShadow_62_4117"/>
</filter>
<radialGradient id="paint0_radial_62_4117" cx="0" cy="0" r="1" gradientUnits="userSpaceOnUse" gradientTransform="translate(39.6467 78.02) rotate(63.3444) scale(168.98 180.813)">
<stop stop-color="#4254F8" stop-opacity="0.32"/>
<stop offset="0.614583" stop-color="#2638DD" stop-opacity="0.67"/>
<stop offset="1" stop-color="#1A16BE"/>
</radialGradient>
<radialGradient id="paint1_radial_62_4117" cx="0" cy="0" r="1" gradientUnits="userSpaceOnUse" gradientTransform="translate(28.5 67.5) rotate(28.4127) scale(69.3542 72.1323)">
<stop stop-color="white"/>
<stop offset="0.0299815" stop-color="white" stop-opacity="0.95"/>
<stop offset="0.0745734" stop-color="white" stop-opacity="0.22"/>
<stop offset="1" stop-color="white" stop-opacity="0"/>
</radialGradient>
</defs>
</svg>
