<svg width="623" height="580" viewBox="0 0 623 580" fill="none" xmlns="http://www.w3.org/2000/svg">
<g filter="url(#filter0_i_62_4126)">
<path d="M367.309 9.37148C293.708 -3.67046 241.513 -2.17874 202.142 9.37146C137.138 28.4411 75.4273 79.7087 41.6014 142.202C20.3955 181.38 -8.15496 296.872 3.47915 344.326C15.3099 392.582 34.8457 434.365 60.0748 477.73C95.9774 539.442 163.796 581.606 241.513 579.118L241.804 579.109C297.176 577.336 371.826 574.946 421.839 551.093C469.683 528.274 519.269 479.559 550.379 439.037C583.038 396.499 609.8 337.861 619.343 284.008C633.672 203.14 600.819 137.894 526.898 81.3164C501.155 61.614 398.129 14.8327 367.309 9.37148Z" fill="url(#paint0_radial_62_4126)"/>
<path d="M367.309 9.37148C293.708 -3.67046 241.513 -2.17874 202.142 9.37146C137.138 28.4411 75.4273 79.7087 41.6014 142.202C20.3955 181.38 -8.15496 296.872 3.47915 344.326C15.3099 392.582 34.8457 434.365 60.0748 477.73C95.9774 539.442 163.796 581.606 241.513 579.118L241.804 579.109C297.176 577.336 371.826 574.946 421.839 551.093C469.683 528.274 519.269 479.559 550.379 439.037C583.038 396.499 609.8 337.861 619.343 284.008C633.672 203.14 600.819 137.894 526.898 81.3164C501.155 61.614 398.129 14.8327 367.309 9.37148Z" fill="url(#paint1_radial_62_4126)" fill-opacity="0.7"/>
</g>
<path d="M241.37 574.62L241.369 574.62C165.419 577.052 99.0944 535.851 63.9644 475.467C38.8644 432.324 19.5435 390.952 7.84972 343.255C5.11015 332.08 4.67312 316.524 6.03268 298.574C7.38597 280.707 10.4911 260.799 14.6293 241.085C22.9326 201.53 35.2648 163.363 45.5589 144.344C78.8507 82.8375 139.628 32.4002 203.408 13.6895C241.859 2.40959 293.285 0.82459 366.524 13.8025C373.775 15.0872 385.646 18.8958 400.031 24.3535C414.32 29.7748 430.804 36.7123 447.154 44.1039C480.039 58.9709 511.763 75.3998 524.163 84.8898C560.733 112.88 586.867 142.805 602.138 175.459C617.379 208.052 621.927 243.633 614.912 283.222C605.502 336.327 579.052 394.301 546.81 436.297C515.908 476.548 466.84 524.644 419.902 547.031C395.549 558.646 364.951 565.134 333.298 568.913C301.687 572.687 269.374 573.724 241.661 574.611C241.661 574.611 241.66 574.611 241.66 574.611L241.37 574.62Z" stroke="#B14000" stroke-opacity="0.1" stroke-width="9" stroke-linecap="round"/>
<defs>
<filter id="filter0_i_62_4126" x="0.786377" y="0.140991" width="621.842" height="579.082" filterUnits="userSpaceOnUse" color-interpolation-filters="sRGB">
<feFlood flood-opacity="0" result="BackgroundImageFix"/>
<feBlend mode="normal" in="SourceGraphic" in2="BackgroundImageFix" result="shape"/>
<feColorMatrix in="SourceAlpha" type="matrix" values="0 0 0 0 0 0 0 0 0 0 0 0 0 0 0 0 0 0 127 0" result="hardAlpha"/>
<feOffset/>
<feGaussianBlur stdDeviation="37.5"/>
<feComposite in2="hardAlpha" operator="arithmetic" k2="-1" k3="1"/>
<feColorMatrix type="matrix" values="0 0 0 0 0.645833 0 0 0 0 0.268493 0 0 0 0 0 0 0 0 1 0"/>
<feBlend mode="normal" in2="shape" result="effect1_innerShadow_62_4126"/>
</filter>
<radialGradient id="paint0_radial_62_4126" cx="0" cy="0" r="1" gradientUnits="userSpaceOnUse" gradientTransform="translate(280.5 297) rotate(49.8987) scale(300.972 295.536)">
<stop offset="0.0212628" stop-color="#FFAE81" stop-opacity="0"/>
<stop offset="0.453125" stop-color="#FE9A3E" stop-opacity="0.65"/>
<stop offset="0.755459" stop-color="#E8721C" stop-opacity="0.74"/>
<stop offset="1" stop-color="#CC5300" stop-opacity="0.83"/>
</radialGradient>
<radialGradient id="paint1_radial_62_4126" cx="0" cy="0" r="1" gradientUnits="userSpaceOnUse" gradientTransform="translate(151 203.5) rotate(56.6366) scale(194.564 279.023)">
<stop stop-color="white"/>
<stop offset="1" stop-color="white" stop-opacity="0"/>
</radialGradient>
</defs>
</svg>
